{
  "accessors": [
    {
      "bufferView": 2,
      "componentType": 5126,
      "count": 13631,
      "max": [
        0.9853067994117737,
        19.99993324279785,
        0.9853067994117737
      ],
      "min": [
        -0.9853067994117737,
        -0.9999523162841797,
        -0.9853067994117737
      ],
      "type": "VEC3"
    },
    {
      "bufferView": 2,
      "byteOffset": 163572,
      "componentType": 5126,
      "count": 13631,
      "max": [
        0.999707818031311,
        0.9999945163726807,
        0.999707818031311
      ],
      "min": [
        -0.999707818031311,
        -1.0,
        -0.999707818031311
      ],
      "type": "VEC3"
    },
    {
      "bufferView": 1,
      "componentType": 5126,
      "count": 13631,
      "max": [
        1.0000001192092896,
        1.0000001192092896
      ],
      "min": [
        0.0,
        0.01013976987451315
      ],
      "type": "VEC2"
    },
    {
      "bufferView": 0,
      "componentType": 5125,
      "count": 66048,
      "type": "SCALAR"
    },
    {
      "bufferView": 2,
      "byteOffset": 327144,
      "componentType": 5126,
      "count": 11010,
      "max": [
        0.993507444858551,
        -4.113682371098548e-05,
        0.9935075640678406
      ],
      "min": [
        -0.993507444858551,
        -0.3423127830028534,
        -0.9935075044631958
      ],
      "type": "VEC3"
    },
    {
      "bufferView": 2,
      "byteOffset": 459264,
      "componentType": 5126,
      "count": 11010,
      "max": [
        1.0,
        1.0,
        1.0
      ],
      "min": [
        -1.0,
        -1.0,
        -1.0
      ],
      "type": "VEC3"
    },
    {
      "bufferView": 1,
      "byteOffset": 109048,
      "componentType": 5126,
      "count": 11010,
      "max": [
        0.0,
        0.0
      ],
      "min": [
        0.0,
        0.0
      ],
      "type": "VEC2"
    },
    {
      "bufferView": 0,
      "byteOffset": 264192,
      "componentType": 5125,
      "count": 66048,
      "type": "SCALAR"
    },
    {
      "bufferView": 2,
      "byteOffset": 591384,
      "componentType": 5126,
      "count": 65533,
      "max": [
        8.544548988342285,
        0.9999809861183167,
        12.385753631591797
      ],
      "min": [
        -12.709163665771484,
        -4.2803120613098145,
        -10.728278160095215
      ],
      "type": "VEC3"
    },
    {
      "bufferView": 2,
      "byteOffset": 1377780,
      "componentType": 5126,
      "count": 65533,
      "max": [
        1.0,
        1.0,
        1.0
      ],
      "min": [
        -1.0,
        -1.0,
        -1.0
      ],
      "type": "VEC3"
    },
    {
      "bufferView": 1,
      "byteOffset": 197128,
      "componentType": 5126,
      "count": 65533,
      "max": [
        1.0000001192092896,
        1.0000001192092896
      ],
      "min": [
        -0.014347188174724579,
        0.0
      ],
      "type": "VEC2"
    },
    {
      "bufferView": 0,
      "byteOffset": 528384,
      "componentType": 5125,
      "count": 189843,
      "type": "SCALAR"
    },
    {
      "bufferView": 2,
      "byteOffset": 2164176,
      "componentType": 5126,
      "count": 4607,
      "max": [
        6.300051212310791,
        0.8357813954353333,
        11.222166061401367
      ],
      "min": [
        -13.745895385742188,
        0.6430313587188721,
        -0.2991897463798523
      ],
      "type": "VEC3"
    },
    {
      "bufferView": 2,
      "byteOffset": 2219460,
      "componentType": 5126,
      "count": 4607,
      "max": [
        0.9565213322639465,
        0.9999993443489075,
        0.9459336996078491
      ],
      "min": [
        -0.8991304636001587,
        -1.0,
        -0.9906142950057983
      ],
      "type": "VEC3"
    },
    {
      "bufferView": 1,
      "byteOffset": 721392,
      "componentType": 5126,
      "count": 4607,
      "max": [
        0.37993288040161133,
        0.9987465143203735
      ],
      "min": [
        -0.014347114600241184,
        0.0
      ],
      "type": "VEC2"
    },
    {
      "bufferView": 0,
      "byteOffset": 1287756,
      "componentType": 5125,
      "count": 6909,
      "type": "SCALAR"
    },
    {
      "bufferView": 2,
      "byteOffset": 2274744,
      "componentType": 5126,
      "count": 4,
      "max": [
        1.0,
        0.0,
        1.0
      ],
      "min": [
        -1.0,
        0.0,
        -1.0
      ],
      "type": "VEC3"
    },
    {
      "bufferView": 2,
      "byteOffset": 2274792,
      "componentType": 5126,
      "count": 4,
      "max": [
        0.0,
        1.0,
        -0.0
      ],
      "min": [
        0.0,
        1.0,
        -0.0
      ],
      "type": "VEC3"
    },
    {
      "bufferView": 1,
      "byteOffset": 758248,
      "componentType": 5126,
      "count": 4,
      "max": [
        1.0,
        1.0
      ],
      "min": [
        0.0,
        0.0
      ],
      "type": "VEC2"
    },
    {
      "bufferView": 0,
      "byteOffset": 1315392,
      "componentType": 5125,
      "count": 6,
      "type": "SCALAR"
    },
    {
      "bufferView": 3,
      "componentType": 5126,
      "count": 40,
      "max": [
        1.6666666269302368
      ],
      "min": [
        0.0416666679084301
      ],
      "type": "SCALAR"
    },
    {
      "bufferView": 4,
      "componentType": 5126,
      "count": 40,
      "max": [
        0.7071067690849304,
        0.7071067690849304,
        3.512470314603888e-08,
        0.7071037888526917
      ],
      "min": [
        0.0020478861406445503,
        0.0020478861406445503,
        -0.7071039080619812,
        2.6692532628658228e-08
      ],
      "type": "VEC4"
    },
    {
      "bufferView": 3,
      "byteOffset": 160,
      "componentType": 5126,
      "count": 41,
      "max": [
        1.6666666269302368
      ],
      "min": [
        0.0
      ],
      "type": "SCALAR"
    },
    {
      "bufferView": 4,
      "byteOffset": 640,
      "componentType": 5126,
      "count": 41,
      "max": [
        0.7071067690849304,
        0.7071067690849304,
        3.512470669875256e-08,
        0.7071067094802856
      ],
      "min": [
        1.5454313384566376e-08,
        1.5454311608209537e-08,
        -0.7071068286895752,
        2.6692536181371906e-08
      ],
      "type": "VEC4"
    }
  ],
  "animations": [
    {
      "channels": [
        {
          "sampler": 0,
          "target": {
            "node": 7,
            "path": "rotation"
          }
        }
      ],
      "name": "Action",
      "samplers": [
        {
          "input": 20,
          "interpolation": "LINEAR",
          "output": 21
        }
      ]
    },
    {
      "channels": [
        {
          "sampler": 0,
          "target": {
            "node": 7,
            "path": "rotation"
          }
        }
      ],
      "name": "Cylinder.002Action",
      "samplers": [
        {
          "input": 22,
          "interpolation": "LINEAR",
          "output": 23
        }
      ]
    }
  ],
  "asset": {
    "extras": {
      "author": "Stefifox (https://sketchfab.com/Stefifox)",
      "license": "CC-BY-4.0 (http://creativecommons.org/licenses/by/4.0/)",
      "source": "https://sketchfab.com/3d-models/wind-turbine-ddfe9c089d6d425f8a83959443bbe062",
      "title": "Wind Turbine"
    },
    "generator": "Sketchfab-12.68.0",
    "version": "2.0"
  },
  "bufferViews": [
    {
      "buffer": 0,
      "byteLength": 1315416,
      "name": "floatBufferViews",
      "target": 34963
    },
    {
      "buffer": 0,
      "byteLength": 758280,
      "byteOffset": 1315416,
      "byteStride": 8,
      "name": "floatBufferViews",
      "target": 34962
    },
    {
      "buffer": 0,
      "byteLength": 2274840,
      "byteOffset": 2073696,
      "byteStride": 12,
      "name": "floatBufferViews",
      "target": 34962
    },
    {
      "buffer": 0,
      "byteLength": 324,
      "byteOffset": 4348536,
      "name": "floatBufferViews"
    },
    {
      "buffer": 0,
      "byteLength": 1296,
      "byteOffset": 4348860,
      "byteStride": 16,
      "name": "floatBufferViews"
    }
  ],
  "buffers": [
    {
      "byteLength": 4350156,
      "uri": "scene.bin"
    }
  ],
  "materials": [
    {
      "doubleSided": true,
      "name": "material_0",
      "pbrMetallicRoughness": {
        "metallicFactor": 0.0,
        "roughnessFactor": 0.6
      }
    },
    {
      "doubleSided": true,
      "name": "Material.001",
      "pbrMetallicRoughness": {
        "baseColorFactor": [
          0.8,
          0.8,
          0.8,
          1.0
        ],
        "metallicFactor": 0.0
      }
    },
    {
      "doubleSided": true,
      "name": "Material.003",
      "pbrMetallicRoughness": {
        "baseColorFactor": [
          0.2970957407866058,
          0.472307320362618,
          0.06773431725208555,
          1.0
        ],
        "metallicFactor": 0.0
      }
    }
  ],
  "meshes": [
    {
      "name": "Object_0",
      "primitives": [
        {
          "attributes": {
            "NORMAL": 1,
            "POSITION": 0,
            "TEXCOORD_0": 2
          },
          "indices": 3,
          "material": 1,
          "mode": 4
        }
      ]
    },
    {
      "name": "Object_1",
      "primitives": [
        {
          "attributes": {
            "NORMAL": 5,
            "POSITION": 4,
            "TEXCOORD_0": 6
          },
          "indices": 7,
          "material": 0,
          "mode": 4
        }
      ]
    },
    {
      "name": "Object_2",
      "primitives": [
        {
          "attributes": {
            "NORMAL": 9,
            "POSITION": 8,
            "TEXCOORD_0": 10
          },
          "indices": 11,
          "material": 1,
          "mode": 4
        }
      ]
    },
    {
      "name": "Object_3",
      "primitives": [
        {
          "attributes": {
            "NORMAL": 13,
            "POSITION": 12,
            "TEXCOORD_0": 14
          },
          "indices": 15,
          "material": 1,
          "mode": 4
        }
      ]
    },
    {
      "name": "Object_4",
      "primitives": [
        {
          "attributes": {
            "NORMAL": 17,
            "POSITION": 16,
            "TEXCOORD_0": 18
          },
          "indices": 19,
          "material": 2,
          "mode": 4
        }
      ]
    }
  ],
  "nodes": [
    {
      "children": [
        1
      ],
      "matrix": [
        1.0,
        0.0,
        0.0,
        0.0,
        0.0,
        2.220446049250313e-16,
        -1.0,
        0.0,
        0.0,
        1.0,
        2.220446049250313e-16,
        0.0,
        0.0,
        0.0,
        0.0,
        1.0
      ],
      "name": "Sketchfab_model"
    },
    {
      "children": [
        2
      ],
      "name": "root"
    },
    {
      "children": [
        3,
        5,
        7,
        10
      ],
      "matrix": [
        1.0,
        0.0,
        0.0,
        0.0,
        0.0,
        2.220446049250313e-16,
        1.0,
        0.0,
        0.0,
        -1.0,
        2.220446049250313e-16,
        0.0,
        0.0,
        0.0,
        0.0,
        1.0
      ],
      "name": "GLTF_SceneRootNode"
    },
    {
      "children": [
        4
      ],
      "matrix": [
        0.3985559344291687,
        0.0,
        0.0,
        0.0,
        0.0,
        0.3985559344291687,
        0.0,
        0.0,
        0.0,
        0.0,
        0.3985559344291687,
        0.0,
        3.38192081451416,
        0.6973803043365479,
        0.044835567474365234,
        1.0
      ],
      "name": "Cylinder_1"
    },
    {
      "mesh": 0,
      "name": "Object_4"
    },
    {
      "children": [
        6
      ],
      "matrix": [
        1.16416335105896,
        0.0,
        0.0,
        0.0,
        0.0,
        1.16416335105896,
        0.0,
        0.0,
        0.0,
        0.0,
        1.16416335105896,
        0.0,
        3.38192081451416,
        0.38626790046691895,
        0.044835567474365234,
        1.0
      ],
      "name": "Circle_2"
    },
    {
      "mesh": 1,
      "name": "Object_6"
    },
    {
      "children": [
        8,
        9
      ],
      "name": "Cylinder.002_3",
      "rotation": [
        0.0,
        0.0,
        -0.7071067690849304,
        0.7071068286895752
      ],
      "scale": [
        0.3985559344291687,
        0.3985559344291687,
        0.3985559344291687
      ],
      "translation": [
        4.131340026855469,
        8.756376266479492,
        0.04483604431152344
      ]
    },
    {
      "mesh": 2,
      "name": "Object_8"
    },
    {
      "mesh": 3,
      "name": "Object_9"
    },
    {
      "children": [
        11
      ],
      "matrix": [
        46.76910400390625,
        0.0,
        0.0,
        0.0,
        0.0,
        46.76910400390625,
        0.0,
        0.0,
        0.0,
        0.0,
        46.76910400390625,
        0.0,
        0.0,
        0.0,
        0.0,
        1.0
      ],
      "name": "Plane.003_4"
    },
    {
      "mesh": 4,
      "name": "Object_11"
    }
  ],
  "scene": 0,
  "scenes": [
    {
      "name": "Sketchfab_Scene",
      "nodes": [
        0
      ]
    }
  ]
}
